<?xml version="1.0" encoding="utf-8"?>
<!-- Generator: Adobe Illustrator 19.0.0, SVG Export Plug-In . SVG Version: 6.00 Build 0)  -->
<svg version="1.1" id="Layer_1" xmlns="http://www.w3.org/2000/svg" xmlns:xlink="http://www.w3.org/1999/xlink" x="0px" y="0px"
	 viewBox="0 0 372.5 372.7" style="enable-background:new 0 0 372.5 372.7;" xml:space="preserve">
<g>
	<g>
		<path d="M186,118c-28.6,0.2-54.5,18.2-64.4,45c-10,26.9-1.4,58.4,20.8,76.6c22.3,18.3,54.4,20.8,79.2,5.8
			c24.6-14.9,37.4-44.2,31.8-72.4c-5.5-27.6-28.6-49.8-56.3-54.1C193.4,118.3,189.7,118,186,118c-4.5,0-4.5,7,0,7
			c25.5,0.1,49.2,16.3,57.9,40.5c8.8,24.5,1.2,52.1-18.7,68.7c-19.8,16.5-48.9,18.6-70.9,5.3c-22.1-13.2-33.9-39.7-28.8-65
			c5.1-25.2,25.7-44.8,51-48.8c3.1-0.5,6.3-0.7,9.4-0.7C190.5,125,190.6,118,186,118z"/>
	</g>
</g>
<g>
	<g>
		<g>
			<path d="M254.4,55.8c-9.1-4.7-18.6-8.5-28.5-11.3c-4.3-1.2-6.2,5.5-1.9,6.7c9.3,2.6,18.2,6.2,26.8,10.6
				C254.9,63.9,258.5,57.8,254.4,55.8L254.4,55.8z"/>
		</g>
	</g>
	<g>
		<g>
			<path d="M327.6,144.5c-3.4-11.2-8.1-22-13.9-32.1c-2.3-3.9-8.3-0.4-6,3.5c5.6,9.6,10,19.8,13.2,30.4
				C322.1,150.6,328.9,148.8,327.6,144.5L327.6,144.5z"/>
		</g>
	</g>
	<g>
		<g>
			<path d="M316.1,256.5c5.2-9.7,9.3-19.9,12.2-30.4c1.2-4.3-5.5-6.2-6.7-1.9c-2.8,10-6.6,19.6-11.5,28.8
				C308,257,314,260.5,316.1,256.5L316.1,256.5z"/>
		</g>
	</g>
	<g>
		<g>
			<path d="M227.3,328.5c11.2-3.3,22-7.9,32.2-13.7c3.9-2.2,0.4-8.3-3.5-6c-9.7,5.5-19.9,9.9-30.5,13
				C221.1,323,222.9,329.8,227.3,328.5L227.3,328.5z"/>
		</g>
	</g>
	<g>
		<g>
			<path d="M116.9,317.1c9.3,4.9,19,8.8,29.1,11.7c4.3,1.2,6.2-5.5,1.9-6.7c-9.5-2.7-18.7-6.4-27.5-11
				C116.4,309,112.9,315,116.9,317.1L116.9,317.1z"/>
		</g>
	</g>
	<g>
		<g>
			<path d="M44.9,230.1c3.3,10.5,7.7,20.7,13.2,30.3c2.2,3.9,8.3,0.4,6-3.5c-5.2-9.1-9.4-18.6-12.5-28.6
				C50.3,223.9,43.5,225.8,44.9,230.1L44.9,230.1z"/>
		</g>
	</g>
	<g>
		<g>
			<path d="M144.5,44.9c-11.3,3.4-22.1,8-32.3,13.9c-3.9,2.2-0.4,8.3,3.5,6c9.7-5.6,19.9-10,30.6-13.2
				C150.6,50.4,148.8,43.6,144.5,44.9L144.5,44.9z"/>
		</g>
	</g>
	<g>
		<g>
			<path d="M45.9,146.5c-8.4,1.6-16.7,3.2-25.1,4.8c-4.8,0.9-9.1,2.1-13,5.3C2.6,160.9,0,167.3,0,173.9c0,8.9,0,17.9,0,26.8
				c0,6.1,1.9,12,6.3,16.4c3.4,3.5,7.7,5.1,12.3,6.5c9.1,2.9,18.2,5.8,27.3,8.6c4.3,1.4,6.1-5.4,1.9-6.7c-7.6-2.4-15.2-4.8-22.8-7.2
				c-2.6-0.8-5.2-1.6-7.8-2.5C11,213.8,7.1,208.1,7,201.7c-0.1-8.4,0-16.8,0-25.1c0-4.3,0.2-8.4,2.9-12c2.9-3.9,7-5.3,11.6-6.2
				c8.8-1.7,17.5-3.4,26.3-5.1C52.2,152.4,50.3,145.6,45.9,146.5L45.9,146.5z"/>
		</g>
	</g>
	<g>
		<g>
			<path d="M227.8,45.9c-1.6-8.4-3.2-16.7-4.8-25.1c-0.9-4.8-2.1-9.1-5.3-13C213.4,2.6,207,0,200.4,0c-8.9,0-17.9,0-26.8,0
				c-6.1,0-12,1.9-16.4,6.3c-3.5,3.4-5.1,7.7-6.5,12.3c-2.9,9.1-5.8,18.2-8.6,27.3c-1.4,4.3,5.4,6.1,6.7,1.9
				c2.4-7.6,4.8-15.2,7.2-22.8c0.8-2.6,1.6-5.2,2.5-7.8c2.1-6.2,7.8-10.1,14.2-10.2c8.4-0.1,16.8,0,25.1,0c4.3,0,8.4,0.2,12,2.9
				c3.9,2.9,5.3,7,6.2,11.6c1.7,8.8,3.4,17.5,5.1,26.3C221.9,52.2,228.7,50.3,227.8,45.9L227.8,45.9z"/>
		</g>
	</g>
	<g>
		<g>
			<path d="M115.4,57.9c-7-4.7-13.9-9.4-20.9-14.1c-3.9-2.7-7.7-5-12.6-5.6c-6.9-0.9-13.5,1.8-18.5,6.6C57.2,51,50.9,57.3,44.6,63.6
				c-4.5,4.5-7.5,10.3-7.3,16.8c0.1,4.9,2.1,8.9,4.3,13.1c4.3,8.3,8.7,16.7,13,25c2.1,4,8.1,0.5,6-3.5c-3.6-6.9-7.2-13.9-10.8-20.8
				c-1.3-2.5-2.7-5.1-4-7.6C43,80.7,44.3,74,48.8,69.3c5.9-6,11.9-11.9,17.8-17.8c3.1-3.1,6.2-5.8,10.8-6.4c4.8-0.6,8.7,1.4,12.4,4
				c7.3,5,14.6,9.9,22,14.9C115.6,66.4,119.1,60.4,115.4,57.9L115.4,57.9z"/>
		</g>
	</g>
	<g>
		<g>
			<path d="M57.7,257.3c-4.7,7-9.4,13.9-14.1,20.9c-2.7,3.9-5,7.7-5.6,12.6c-0.9,6.9,1.8,13.5,6.6,18.5c6.2,6.3,12.5,12.5,18.8,18.8
				c4.5,4.5,10.3,7.5,16.8,7.3c4.9-0.1,8.9-2.1,13.1-4.3c8.3-4.3,16.7-8.7,25-13c4-2.1,0.5-8.1-3.5-6c-6.9,3.6-13.9,7.2-20.8,10.8
				c-2.5,1.3-5.1,2.7-7.6,4c-5.9,2.9-12.6,1.6-17.3-2.9c-6-5.9-11.9-11.9-17.8-17.8c-3.1-3.1-5.8-6.2-6.4-10.8
				c-0.6-4.8,1.4-8.7,4-12.4c5-7.3,9.9-14.6,14.9-22C66.2,257.1,60.2,253.6,57.7,257.3L57.7,257.3z"/>
		</g>
	</g>
	<g>
		<g>
			<path d="M326.6,228.3c8.4-1.6,16.7-3.2,25.1-4.8c4.8-0.9,9.1-2.1,13-5.3c5.2-4.3,7.8-10.7,7.8-17.3c0-8.9,0-17.9,0-26.8
				c0-6.1-1.9-12-6.3-16.4c-3.4-3.5-7.7-5.1-12.3-6.5c-9.1-2.9-18.2-5.8-27.3-8.6c-4.3-1.4-6.1,5.4-1.9,6.7
				c7.6,2.4,15.2,4.8,22.8,7.2c2.6,0.8,5.2,1.6,7.8,2.5c6.2,2.1,10.1,7.8,10.2,14.2c0.1,8.4,0,16.8,0,25.1c0,4.3-0.2,8.4-2.9,12
				c-2.9,3.9-7,5.3-11.6,6.2c-8.8,1.7-17.5,3.4-26.3,5.1C320.3,222.4,322.2,229.1,326.6,228.3L326.6,228.3z"/>
		</g>
	</g>
	<g>
		<g>
			<path d="M143.7,326.8c1.6,8.4,3.2,16.7,4.8,25.1c0.9,4.8,2.1,9.1,5.3,13c4.3,5.2,10.7,7.8,17.3,7.8c8.9,0,17.9,0,26.8,0
				c6.1,0,12-1.9,16.4-6.3c3.5-3.4,5.1-7.7,6.5-12.3c2.9-9.1,5.8-18.2,8.6-27.3c1.4-4.3-5.4-6.1-6.7-1.9c-2.4,7.6-4.8,15.2-7.2,22.8
				c-0.8,2.6-1.6,5.2-2.5,7.8c-2.1,6.2-7.8,10.1-14.2,10.2c-8.4,0.1-16.8,0-25.1,0c-4.3,0-8.4-0.2-12-2.9c-3.9-2.9-5.3-7-6.2-11.6
				c-1.7-8.8-3.4-17.5-5.1-26.3C149.6,320.5,142.8,322.4,143.7,326.8L143.7,326.8z"/>
		</g>
	</g>
	<g>
		<g>
			<path d="M256.1,314.9c7,4.7,13.9,9.4,20.9,14.1c3.9,2.7,7.7,5,12.6,5.6c6.9,0.9,13.5-1.8,18.5-6.6c6.3-6.2,12.5-12.5,18.8-18.8
				c4.5-4.5,7.5-10.3,7.3-16.8c-0.1-4.9-2.1-8.9-4.3-13.1c-4.3-8.3-8.7-16.7-13-25c-2.1-4-8.1-0.5-6,3.5c3.6,6.9,7.2,13.9,10.8,20.8
				c1.3,2.5,2.7,5.1,4,7.6c2.9,5.9,1.6,12.6-2.9,17.3c-5.9,6-11.9,11.9-17.8,17.8c-3.1,3.1-6.2,5.8-10.8,6.4
				c-4.8,0.6-8.7-1.4-12.4-4c-7.3-5-14.6-9.9-22-14.9C255.9,306.3,252.4,312.4,256.1,314.9L256.1,314.9z"/>
		</g>
	</g>
	<g>
		<g>
			<path d="M313.8,115.4c4.7-7,9.4-13.9,14.1-20.9c2.7-3.9,5-7.7,5.6-12.6c0.9-6.9-1.8-13.5-6.6-18.5c-6.2-6.3-12.5-12.5-18.8-18.8
				c-4.5-4.5-10.3-7.5-16.8-7.3c-4.9,0.1-8.9,2.1-13.1,4.3c-8.3,4.3-16.7,8.7-25,13c-4,2.1-0.5,8.1,3.5,6
				c6.9-3.6,13.9-7.2,20.8-10.8c2.5-1.3,5.1-2.7,7.6-4c5.9-2.9,12.6-1.6,17.3,2.9c6,5.9,11.9,11.9,17.8,17.8
				c3.1,3.1,5.8,6.2,6.4,10.8c0.6,4.8-1.4,8.7-4,12.4c-5,7.3-9.9,14.6-14.9,22C305.3,115.6,311.3,119.1,313.8,115.4L313.8,115.4z"/>
		</g>
	</g>
	<g>
		<g>
			<path d="M56,116.6c-5.4,10.1-9.7,20.8-12.7,31.8c-1.2,4.4,5.6,6.2,6.7,1.9c2.8-10.5,6.8-20.6,12-30.2
				C64.2,116.2,58.2,112.6,56,116.6L56,116.6z"/>
		</g>
	</g>
</g>
</svg>
