<?xml version="1.0" encoding="utf-8"?>
<!-- Generator: Adobe Illustrator 19.0.0, SVG Export Plug-In . SVG Version: 6.00 Build 0)  -->
<svg version="1.1" id="Layer_1" xmlns="http://www.w3.org/2000/svg" xmlns:xlink="http://www.w3.org/1999/xlink" x="0px" y="0px"
	 viewBox="0 0 47.4 47.4" style="enable-background:new 0 0 47.4 47.4;" xml:space="preserve">
<style type="text/css">
	.st0{fill:none;stroke:#FFFFFF;stroke-miterlimit:10;}
	.st1{fill:#FFFFFF;}
</style>
<g>
	<path class="st0" d="M23.7,46.9c12.8,0,23.2-10.4,23.2-23.2c0-12.8-10.4-23.2-23.2-23.2C10.9,0.5,0.5,10.9,0.5,23.7
		C0.5,36.5,10.9,46.9,23.7,46.9L23.7,46.9z"/>
	<path class="st1" d="M23.7,46.9c5.4,0,10.4-1.9,14.4-5c-0.8-4.7-3.3-8.5-7-10.7l-0.3-0.2l-0.2,0.2c-1.8,1.9-4.2,2.9-6.8,2.9
		c-2.6,0-5-1-6.8-2.9l-0.2-0.2l-0.3,0.2c-3.8,2.2-6.3,6-7,10.7C13.3,45.1,18.3,46.9,23.7,46.9z"/>
	<path class="st1" d="M23.7,32.3c4.7,0,8.6-3.9,8.6-8.6c0-4.7-3.9-8.6-8.6-8.6c-4.7,0-8.6,3.9-8.6,8.6C15.1,28.5,19,32.3,23.7,32.3
		L23.7,32.3z"/>
</g>
</svg>
